<svg xmlns="http://www.w3.org/2000/svg" xml:space="preserve" id="Isolation_Mode" x="0" y="0" style="enable-background:new 0 0 841.89 595.28" version="1.1" viewBox="0 0 841.89 595.28"><style>.st0{fill-rule:evenodd;clip-rule:evenodd}</style><path d="M77.63 410.9h15.93v12.22H77.63zM77.63 431.41h15.93v76.33H77.63zM104.82 431.41v76.33h14.87V453.4l.31.11 31.03 54.23h15.93v-76.33h-14.87v53.05l-.2.08-30.3-53.13zM211.86 429.38c-23.71 0-35.3 17.77-35.3 40.29 0 22.11 11.06 40.06 34.87 40.06 18.71 0 29.76-10.93 33.15-28.14h-15.93c-1.9 9.45-8.2 14.34-16.89 14.34-14.57 0-18.93-13.95-18.93-26.26 0-14.54 5.95-26.46 19.24-26.46 9.23 0 14.44 4.47 16.58 13.19h15.93c-2.02-17.95-16.45-27.02-32.72-27.02zM253.33 431.41h15.93v76.33h-15.93zM253.33 410.9h15.93v12.22h-15.93zM306.66 431.41v76.33h15.92V473.5h29.77v34.24h15.95v-76.33h-15.95v28.91h-29.77v-28.91zM414.57 429.38c-16.79 0-36.68 9.59-36.68 40.19 0 29.96 19.13 40.16 36.68 40.16 16.88 0 36.64-9.46 36.64-40.24 0-30.52-20.07-40.11-36.64-40.11zm-.11 13.5c13.17 0 20.82 10.42 20.82 26.61 0 17.52-8.41 26.76-20.71 26.76-13.08 0-20.73-10.42-20.73-26.67-.01-17.76 8.81-26.7 20.62-26.7zM460.81 431.41v76.33h52.68v-13.85h-36.75v-62.48zM595.46 431.41h15.93v76.33h-15.93zM521.68 431.41v76.33h33.19c23.69 0 31.57-21.27 31.57-39.98 0-19.45-8.62-36.24-30.94-36.35h-33.82zm15.66 13.2h16.02c14.26.1 16.8 13.07 16.8 24.02 0 10.83-3.41 25.9-17.11 25.9h-15.71v-49.92zM622.64 431.41v76.33h14.89V453.4l.31.11 31.03 54.23h15.96v-76.33h-14.91v53.05l-.2.08-30.28-53.13zM731.04 429.38c-24.23 0-37.19 17.77-37.19 40.41 0 24.02 14.01 39.95 35.17 39.95 11.27 0 17.76-4.35 23.71-11.56.53 3.28 1.06 6.46 1.58 9.56h10.62V466.6h-31.88v12.86h17.77c-1.81 9.64-8.83 16.78-18.71 16.78-15.73 0-21.99-11.28-21.99-26.23 0-15.96 7.53-27.45 21.88-27.45 6.71 0 14.67 4.06 16.8 12.56h15.82c-1.91-16.48-15.95-25.74-33.58-25.74zM595.46 410.9h15.93v12.22h-15.93z" class="st0"/><path d="M380.13 126.78c0-22.73 18.42-41.16 41.13-41.16 22.73 0 41.15 18.42 41.15 41.16 0 22.7-18.41 41.13-41.15 41.13-22.71.01-41.13-18.43-41.13-41.13z" style="fill-rule:evenodd;clip-rule:evenodd;fill:#e30613"/><path d="M348.28 185.01c18.22 28.27 28.7 61.95 28.7 98.06 0 34.09-9.4 65.94-25.73 93.16L388.13 393c18.55-32.38 29.14-69.9 29.14-109.92 0-42.16-11.7-81.59-32.16-115.15l-36.83 17.08zM494.28 185.01c-18.23 28.27-28.72 61.95-28.72 98.06 0 34.09 9.4 65.94 25.73 93.16L454.4 393c-18.54-32.38-29.14-69.9-29.14-109.92 0-42.16 11.69-81.59 32.16-115.15l36.86 17.08z"/></svg>